<svg width="125" height="24" viewBox="0 0 125 24" fill="none" xmlns="http://www.w3.org/2000/svg">
<path d="M91.51 0H96.19V22.26H91.51V0Z" fill="#E1E7EF" fill-opacity="0.8"/>
<path d="M81.39 22.62C79.69 22.62 78.16 22.27 76.8 21.57C75.46 20.85 74.41 19.86 73.65 18.6C72.89 17.34 72.51 15.91 72.51 14.31C72.51 12.71 72.89 11.28 73.65 10.02C74.41 8.76 75.46 7.78 76.8 7.08C78.16 6.36 79.69 6 81.39 6C83.09 6 84.61 6.36 85.95 7.08C87.29 7.78 88.34 8.76 89.1 10.02C89.86 11.28 90.24 12.71 90.24 14.31C90.24 15.91 89.86 17.34 89.1 18.6C88.34 19.86 87.29 20.85 85.95 21.57C84.61 22.27 83.09 22.62 81.39 22.62ZM81.39 18.78C82.59 18.78 83.57 18.38 84.33 17.58C85.11 16.76 85.5 15.67 85.5 14.31C85.5 12.95 85.11 11.87 84.33 11.07C83.57 10.25 82.59 9.84 81.39 9.84C80.19 9.84 79.2 10.25 78.42 11.07C77.64 11.87 77.25 12.95 77.25 14.31C77.25 15.67 77.64 16.76 78.42 17.58C79.2 18.38 80.19 18.78 81.39 18.78Z" fill="#E1E7EF" fill-opacity="0.8"/>
<path d="M67.56 6.72H71.7V10.32H67.68V22.5H63V10.32H60.51V6.72H63V6C63 4.16 63.54 2.7 64.62 1.62C65.72 0.54 67.26 0 69.24 0C69.94 0 70.6 0.0800004 71.22 0.240001C71.86 0.380001 72.39 0.590001 72.81 0.870001L71.58 4.26C71.04 3.88 70.41 3.69 69.69 3.69C68.27 3.69 67.56 4.47 67.56 6.03V6.72Z" fill="#E1E7EF" fill-opacity="0.8"/>
<path d="M60.84 21.93C60.38 22.27 59.81 22.53 59.13 22.71C58.47 22.87 57.77 22.95 57.03 22.95C55.11 22.95 53.62 22.46 52.56 21.48C51.52 20.5 51 19.06 51 17.16V10.53H48.51V6.93H51V3H55.68V6.93H59.7V10.53H55.68V17.1C55.68 17.78 55.85 18.31 56.19 18.69C56.55 19.05 57.05 19.23 57.69 19.23C58.43 19.23 59.06 19.03 59.58 18.63L60.84 21.93Z" fill="#E1E7EF" fill-opacity="0.8"/>
<path d="M41.98 8.37C42.54 7.59 43.29 7 44.23 6.6C45.19 6.2 46.29 6 47.53 6V10.32C47.01 10.28 46.66 10.26 46.48 10.26C45.14 10.26 44.09 10.64 43.33 11.4C42.57 12.14 42.19 13.26 42.19 14.76V22.38H37.51V6.24H41.98V8.37Z" fill="#E1E7EF" fill-opacity="0.8"/>
<path d="M9.09 1C10.95 1 12.56 1.31 13.92 1.93C15.3 2.55 16.36 3.43 17.1 4.57C17.84 5.71 18.21 7.06 18.21 8.62C18.21 10.16 17.84 11.51 17.1 12.67C16.36 13.81 15.3 14.69 13.92 15.31C12.56 15.91 10.95 16.21 9.09 16.21H4.86V22H0V1H9.09ZM8.82 12.25C10.28 12.25 11.39 11.94 12.15 11.32C12.91 10.68 13.29 9.78 13.29 8.62C13.29 7.44 12.91 6.54 12.15 5.92C11.39 5.28 10.28 4.96 8.82 4.96H4.86V12.25H8.82Z" fill="#E1E7EF" fill-opacity="0.8"/>
<path d="M98 19.971C98 19.413 98.198 18.945 98.594 18.567C99.008 18.189 99.458 18 99.944 18C100.394 18 100.817 18.189 101.213 18.567C101.627 18.945 101.834 19.413 101.834 19.971C101.834 20.565 101.627 21.042 101.213 21.402C100.817 21.744 100.394 21.915 99.944 21.915C99.458 21.915 99.008 21.744 98.594 21.402C98.198 21.042 98 20.565 98 19.971Z" fill="#E1E7EF" fill-opacity="0.8"/>
<path d="M103 4.33333C103 3.04467 104.045 2 105.333 2C106.254 2 107 2.74619 107 3.66667V18.1111L109 22H107C104.791 22 103 20.2091 103 18V4.33333Z" fill="#3B82F6"/>
<path d="M125 21.25C125 20.4215 123.321 19 121.25 19H113.75C111.679 19 110 20.4215 110 21.25V22H125V21.25Z" fill="#3B82F6"/>
<path d="M117.5 18C121.642 18 125 14.6421 125 10.5C125 6.35786 121.642 3 117.5 3C113.358 3 110 6.35786 110 10.5C110 14.6421 113.358 18 117.5 18Z" fill="#3B82F6"/>
<path d="M122 13C122 14.6569 119.985 16 117.5 16C115.015 16 113 14.6569 113 13C113 13 115.25 13 117.5 13C119.75 13 122 13 122 13Z" fill="white"/>
<path d="M26.88 22.62C25.18 22.62 23.65 22.27 22.29 21.57C20.95 20.85 19.9 19.86 19.14 18.6C18.38 17.34 18 15.91 18 14.31C18 12.71 18.38 11.28 19.14 10.02C19.9 8.76 20.95 7.78 22.29 7.08C23.65 6.36 25.18 6 26.88 6C28.58 6 30.1 6.36 31.44 7.08C32.78 7.78 33.83 8.76 34.59 10.02C35.35 11.28 35.73 12.71 35.73 14.31C35.73 15.91 35.35 17.34 34.59 18.6C33.83 19.86 32.78 20.85 31.44 21.57C30.1 22.27 28.58 22.62 26.88 22.62ZM26.88 18.78C28.08 18.78 29.06 18.38 29.82 17.58C30.6 16.76 30.99 15.67 30.99 14.31C30.99 12.95 30.6 11.87 29.82 11.07C29.06 10.25 28.08 9.84 26.88 9.84C25.68 9.84 24.69 10.25 23.91 11.07C23.13 11.87 22.74 12.95 22.74 14.31C22.74 15.67 23.13 16.76 23.91 17.58C24.69 18.38 25.68 18.78 26.88 18.78Z" fill="#E1E7EF" fill-opacity="0.8"/>
</svg>
