<svg fill="none" height="21" viewBox="0 0 139 21" width="139" xmlns="http://www.w3.org/2000/svg">
<path d="M2.21973 8.75112H4.8879L3.36323 9.53587L7.39911 4.31166H10.0449V4.62556L5.11211 10.6794L5.22422 8.61659L10.0673 15.3655V15.7018H7.37669L3.47534 9.91704L4.91032 10.657H2.21973V8.75112ZM2.57848 15.7018H0V0.5H2.57848V15.7018Z" fill="black"></path>
<path d="M16.9819 13.7511C17.6695 13.7511 18.2674 13.5942 18.7756 13.2803C19.2988 12.9664 19.7023 12.5329 19.9864 11.9798C20.2704 11.4268 20.4124 10.784 20.4124 10.0516C20.4124 9.33408 20.2704 8.6988 19.9864 8.14574C19.7023 7.57773 19.2988 7.14425 18.7756 6.84529C18.2674 6.53139 17.6695 6.37444 16.9819 6.37444C16.2943 6.37444 15.6889 6.53139 15.1657 6.84529C14.6575 7.14425 14.2614 7.57773 13.9774 8.14574C13.6934 8.6988 13.5514 9.33408 13.5514 10.0516C13.5514 10.784 13.6934 11.4268 13.9774 11.9798C14.2614 12.5329 14.6575 12.9664 15.1657 13.2803C15.6889 13.5942 16.2943 13.7511 16.9819 13.7511ZM16.9819 16.0381C15.8309 16.0381 14.8145 15.7765 13.9325 15.2534C13.0506 14.7302 12.3556 14.0202 11.8473 13.1233C11.3391 12.2265 11.085 11.2025 11.085 10.0516C11.085 8.91555 11.3316 7.8991 11.8249 7.00224C12.3331 6.09043 13.0282 5.38042 13.9101 4.8722C14.807 4.34903 15.8309 4.08744 16.9819 4.08744C18.1179 4.08744 19.1269 4.34903 20.0088 4.8722C20.9056 5.38042 21.6082 6.09043 22.1164 7.00224C22.6246 7.8991 22.8787 8.91555 22.8787 10.0516C22.8787 11.2025 22.6246 12.2265 22.1164 13.1233C21.6082 14.0202 20.9056 14.7302 20.0088 15.2534C19.1269 15.7765 18.1179 16.0381 16.9819 16.0381Z" fill="black"></path>
<path d="M27.5328 15.7018C27.0246 15.7018 26.5985 15.5299 26.2548 15.1861C25.911 14.8274 25.7391 14.3939 25.7391 13.8857V2.40583H23.4296V0.5H28.2951V13.5045H30.6045V15.7018H27.5328Z" fill="black"></path>
<path d="M37.9786 16.0381C36.8426 16.0381 35.8186 15.784 34.9068 15.2758C34.01 14.7526 33.3 14.0426 32.7768 13.1457C32.2686 12.2339 32.0145 11.2025 32.0145 10.0516C32.0145 8.9006 32.2686 7.87668 32.7768 6.97982C33.3 6.06801 33.995 5.358 34.862 4.84978C35.729 4.34155 36.6781 4.08744 37.7095 4.08744C38.5765 4.08744 39.3837 4.25934 40.1311 4.60314C40.8784 4.94694 41.5287 5.43274 42.0817 6.06054C42.6497 6.67339 43.0683 7.39088 43.3373 8.213L33.6512 13.0785L33.1131 11.2399L41.8799 6.80045L40.9158 8.63901C40.7364 8.02616 40.4823 7.54783 40.1535 7.20404C39.8396 6.86024 39.4808 6.62108 39.0772 6.48655C38.6886 6.35202 38.2775 6.28475 37.8441 6.28475C37.2013 6.28475 36.6184 6.43423 36.0952 6.73318C35.587 7.01719 35.1759 7.4432 34.862 8.01121C34.5481 8.57922 34.3911 9.25187 34.3911 10.0291C34.3911 10.926 34.563 11.6584 34.9068 12.2265C35.2656 12.7945 35.714 13.213 36.2521 13.4821C36.7902 13.7511 37.3508 13.8857 37.9337 13.8857C38.5616 13.8857 39.152 13.7362 39.705 13.4372C40.2731 13.1383 40.7065 12.6973 41.0055 12.1144H43.4943C43.0907 13.3102 42.3956 14.2668 41.4091 14.9843C40.4375 15.6868 39.294 16.0381 37.9786 16.0381Z" fill="black"></path>
<path d="M45.8461 15.7018V13.5045H50.8461C51.2646 13.5045 51.5636 13.3999 51.743 13.1906C51.9373 12.9813 52.0344 12.6674 52.0344 12.2489C52.0344 11.8004 51.9373 11.4791 51.743 11.2848C51.5636 11.0755 51.2646 10.9709 50.8461 10.9709H48.5591C47.4978 10.9709 46.6682 10.6719 46.0703 10.074C45.4874 9.47608 45.1959 8.65396 45.1959 7.60762C45.1959 6.57623 45.4874 5.76906 46.0703 5.1861C46.6682 4.60314 47.4978 4.31166 48.5591 4.31166H53.6712V6.48655H48.8506C48.4619 6.48655 48.163 6.58371 47.9537 6.77803C47.7594 6.97235 47.6622 7.26383 47.6622 7.65247C47.6622 8.04111 47.7594 8.33259 47.9537 8.52691C48.148 8.72123 48.447 8.81839 48.8506 8.81839H51.2721C52.2886 8.81839 53.0733 9.13229 53.6264 9.76009C54.1944 10.3729 54.4784 11.2175 54.4784 12.2937C54.4784 13.355 54.1944 14.1921 53.6264 14.8049C53.0733 15.4028 52.2886 15.7018 51.2721 15.7018H45.8461Z" fill="black"></path>
<path d="M61.7696 16.0381C60.7532 16.0381 59.8339 15.7765 59.0117 15.2534C58.1896 14.7152 57.5245 13.9978 57.0162 13.1009C56.523 12.204 56.2763 11.1876 56.2763 10.0516C56.2763 8.91555 56.523 7.8991 57.0162 7.00224C57.5095 6.09043 58.1747 5.38042 59.0117 4.8722C59.8488 4.34903 60.7756 4.08744 61.792 4.08744C62.6291 4.08744 63.3541 4.25934 63.9669 4.60314C64.5798 4.93199 65.0506 5.358 65.3795 5.88117H65.94L65.5813 9.82735C65.5813 9.36398 65.4991 8.92302 65.3346 8.50449C65.1702 8.08595 64.931 7.71973 64.6171 7.40583C64.3182 7.09193 63.9669 6.84529 63.5633 6.66592C63.1597 6.48655 62.7113 6.39686 62.218 6.39686C61.5753 6.39686 60.9923 6.56129 60.4692 6.89014C59.946 7.20404 59.5274 7.63752 59.2135 8.19058C58.9146 8.7287 58.7651 9.34903 58.7651 10.0516C58.7651 10.7541 58.9146 11.3819 59.2135 11.935C59.5274 12.488 59.9385 12.929 60.4467 13.2578C60.9699 13.5717 61.5603 13.7287 62.218 13.7287C62.7113 13.7287 63.1597 13.639 63.5633 13.4596C63.9669 13.2803 64.3182 13.0336 64.6171 12.7197C64.931 12.4058 65.1702 12.0471 65.3346 11.6435C65.4991 11.225 65.5813 10.784 65.5813 10.3206L65.94 14.1323H65.3795C65.0506 14.6854 64.5723 15.1413 63.9445 15.5C63.3167 15.8587 62.5917 16.0381 61.7696 16.0381ZM65.5813 15.7018V4.31166H68.0925V15.7018H65.5813Z" fill="black"></path>
<path d="M82.3019 20.5C80.867 20.5 79.6712 20.1712 78.7145 19.5135C77.7579 18.8558 77.1375 17.929 76.8535 16.7332H79.2975C79.5665 17.3012 79.9851 17.7048 80.5531 17.9439C81.136 18.1831 81.7339 18.3027 82.3468 18.3027C83.1241 18.3027 83.7444 18.1532 84.2078 17.8543C84.6712 17.5703 85.0075 17.1816 85.2168 16.6883C85.426 16.1951 85.5307 15.6495 85.5307 15.0516V4.31166H88.0419V15.0516C88.0419 16.2324 87.7952 17.2265 87.302 18.0336C86.8236 18.8408 86.151 19.4537 85.284 19.8722C84.432 20.2907 83.438 20.5 82.3019 20.5ZM81.7414 15.6794C80.7698 15.6794 79.8879 15.4402 79.0957 14.9619C78.3034 14.4686 77.6756 13.796 77.2123 12.9439C76.7489 12.077 76.5172 11.0979 76.5172 10.0067C76.5172 8.88565 76.7489 7.88416 77.2123 7.00224C77.6756 6.10538 78.3034 5.39537 79.0957 4.8722C79.9028 4.34903 80.7997 4.08744 81.7863 4.08744C82.4888 4.08744 83.1465 4.2444 83.7594 4.5583C84.3872 4.85725 84.8954 5.31315 85.284 5.92601H85.8894L85.5307 9.73767C85.5157 9.09492 85.3588 8.52691 85.0598 8.03363C84.7758 7.52541 84.3872 7.1293 83.8939 6.84529C83.4156 6.54634 82.8774 6.39686 82.2795 6.39686C81.6816 6.39686 81.1286 6.55381 80.6203 6.86771C80.1271 7.18161 79.7309 7.6151 79.432 8.16816C79.148 8.70628 79.006 9.33408 79.006 10.0516C79.006 10.6943 79.1555 11.2698 79.4544 11.778C79.7534 12.2713 80.1495 12.6599 80.6428 12.9439C81.136 13.228 81.6816 13.37 82.2795 13.37C82.728 13.37 83.1465 13.2877 83.5351 13.1233C83.9238 12.9589 84.2676 12.7347 84.5665 12.4507C84.8804 12.1517 85.1196 11.8154 85.284 11.4417C85.4484 11.0531 85.5307 10.642 85.5307 10.2085L85.9118 13.8632H85.284C84.9103 14.4312 84.417 14.8797 83.8042 15.2085C83.1913 15.5224 82.5037 15.6794 81.7414 15.6794Z" fill="black"></path>
<path d="M91.4576 15.7018V4.31166H94.0137V4.76009L93.9016 7.69731L94.0137 7.8991V15.7018H91.4576ZM94.0137 10.2982L93.6325 7.02466H94.1482C94.4173 6.20254 94.7985 5.54484 95.2917 5.05157C95.8 4.5583 96.4801 4.31166 97.3321 4.31166H98.5204V6.75561H97.2873C96.6445 6.75561 96.0765 6.89761 95.5832 7.18161C95.0899 7.46562 94.7013 7.86921 94.4173 8.39238C94.1482 8.91555 94.0137 9.55082 94.0137 10.2982Z" fill="black"></path>
<path d="M105.661 13.7511C106.348 13.7511 106.946 13.5942 107.455 13.2803C107.978 12.9664 108.381 12.5329 108.665 11.9798C108.949 11.4268 109.091 10.784 109.091 10.0516C109.091 9.33408 108.949 8.6988 108.665 8.14574C108.381 7.57773 107.978 7.14425 107.455 6.84529C106.946 6.53139 106.348 6.37444 105.661 6.37444C104.973 6.37444 104.368 6.53139 103.845 6.84529C103.336 7.14425 102.94 7.57773 102.656 8.14574C102.372 8.6988 102.23 9.33408 102.23 10.0516C102.23 10.784 102.372 11.4268 102.656 11.9798C102.94 12.5329 103.336 12.9664 103.845 13.2803C104.368 13.5942 104.973 13.7511 105.661 13.7511ZM105.661 16.0381C104.51 16.0381 103.493 15.7765 102.611 15.2534C101.73 14.7302 101.035 14.0202 100.526 13.1233C100.018 12.2265 99.764 11.2025 99.764 10.0516C99.764 8.91555 100.011 7.8991 100.504 7.00224C101.012 6.09043 101.707 5.38042 102.589 4.8722C103.486 4.34903 104.51 4.08744 105.661 4.08744C106.797 4.08744 107.806 4.34903 108.688 4.8722C109.585 5.38042 110.287 6.09043 110.795 7.00224C111.304 7.8991 111.558 8.91555 111.558 10.0516C111.558 11.2025 111.304 12.2265 110.795 13.1233C110.287 14.0202 109.585 14.7302 108.688 15.2534C107.806 15.7765 106.797 16.0381 105.661 16.0381Z" fill="black"></path>
<path d="M117.892 15.9036C117.055 15.9036 116.338 15.7242 115.74 15.3655C115.142 14.9918 114.686 14.491 114.372 13.8632C114.058 13.2354 113.901 12.5254 113.901 11.7332V4.31166H116.457V11.1054C116.457 11.8079 116.644 12.4058 117.018 12.8991C117.406 13.3924 117.967 13.639 118.699 13.639C119.208 13.639 119.671 13.4895 120.089 13.1906C120.508 12.8767 120.837 12.4581 121.076 11.935C121.33 11.4118 121.457 10.8363 121.457 10.2085L121.838 13.7735H121.233C120.889 14.506 120.433 15.0441 119.865 15.3879C119.312 15.7317 118.654 15.9036 117.892 15.9036ZM121.457 15.7018V4.31166H124.013V15.7018H121.457Z" fill="black"></path>
<path d="M133.63 16.0381C132.748 16.0381 131.985 15.8363 131.343 15.4327C130.7 15.0142 130.199 14.4611 129.84 13.7735H129.325L129.683 10.3206C129.683 10.784 129.766 11.225 129.93 11.6435C130.109 12.062 130.349 12.4283 130.648 12.7422C130.946 13.0561 131.298 13.3027 131.701 13.4821C132.12 13.6614 132.576 13.7511 133.069 13.7511C133.712 13.7511 134.295 13.5942 134.818 13.2803C135.341 12.9514 135.752 12.5105 136.051 11.9574C136.35 11.4043 136.5 10.7691 136.5 10.0516C136.5 9.33408 136.35 8.6988 136.051 8.14574C135.752 7.59268 135.341 7.15919 134.818 6.84529C134.295 6.53139 133.704 6.37444 133.047 6.37444C132.419 6.37444 131.851 6.52392 131.343 6.82287C130.834 7.12182 130.431 7.53289 130.132 8.05605C129.833 8.57922 129.683 9.16966 129.683 9.82735L129.325 5.92601H129.93C130.244 5.38789 130.7 4.94694 131.298 4.60314C131.911 4.25934 132.628 4.08744 133.45 4.08744C134.497 4.08744 135.431 4.34903 136.253 4.8722C137.09 5.38042 137.748 6.09043 138.226 7.00224C138.719 7.8991 138.966 8.91555 138.966 10.0516C138.966 11.1876 138.719 12.204 138.226 13.1009C137.748 13.9978 137.105 14.7152 136.298 15.2534C135.491 15.7765 134.601 16.0381 133.63 16.0381ZM127.172 20.1861V4.31166H129.683V12.63L129.571 12.8094L129.728 15.7018V20.1861H127.172Z" fill="black"></path>
</svg>