<svg width="36" height="27" viewBox="0 0 36 27" fill="none" xmlns="http://www.w3.org/2000/svg">
<path d="M9 13.5183C9 11.6915 9.341 9.97429 10.023 8.36671C10.7294 6.73478 11.7037 5.2977 12.9459 4.05548C14.1881 2.7889 15.613 1.80243 17.2206 1.09607C18.8525 0.365358 20.6062 0 22.4817 0C24.3329 0 26.0622 0.365358 27.6698 1.09607C29.3018 1.80243 30.7388 2.7889 31.9811 4.05548C33.2476 5.2977 34.2341 6.73478 34.9405 8.36671C35.6468 9.97429 36 11.6915 36 13.5183C36 15.3938 35.6468 17.1475 34.9405 18.7794C34.2341 20.4114 33.2476 21.8484 31.9811 23.0907C30.7388 24.3085 29.3018 25.2706 27.6698 25.977C26.0622 26.659 24.3329 27 22.4817 27C20.6062 27 18.8525 26.659 17.2206 25.977C15.613 25.295 14.1881 24.3451 12.9459 23.1272C11.7037 21.9093 10.7294 20.4844 10.023 18.8525C9.341 17.2206 9 15.4425 9 13.5183ZM12.6536 13.5548C12.6536 14.9432 12.9093 16.2463 13.4208 17.4641C13.9323 18.6576 14.6387 19.7172 15.5399 20.6428C16.4411 21.5683 17.4885 22.2991 18.682 22.8349C19.8755 23.3464 21.1664 23.6022 22.5548 23.6022C23.9188 23.6022 25.1976 23.3464 26.3911 22.8349C27.5846 22.2991 28.6198 21.5683 29.4966 20.6428C30.3735 19.7172 31.0677 18.6576 31.5792 17.4641C32.0907 16.2463 32.3464 14.931 32.3464 13.5183C32.3464 12.1299 32.0907 10.8268 31.5792 9.60893C31.0677 8.36671 30.3613 7.28281 29.4601 6.35724C28.5589 5.43166 27.5115 4.71313 26.318 4.20162C25.1245 3.66576 23.8457 3.39784 22.4817 3.39784C21.0934 3.39784 19.8024 3.66576 18.6089 4.20162C17.4154 4.73748 16.3681 5.4682 15.4668 6.39377C14.5656 7.31935 13.8714 8.40325 13.3843 9.64547C12.8972 10.8633 12.6536 12.1664 12.6536 13.5548Z" fill="#2563EB"/>
<path d="M22.4289 14.7502C24.7747 14.7502 26.6765 12.3427 26.6765 9.37303C26.6765 5.25487 24.7748 3.99594 22.4289 3.99594C20.083 3.99594 18.1813 5.25487 18.1813 9.37303C18.1814 12.3427 20.083 14.7502 22.4289 14.7502Z" fill="#2563EB"/>
<path d="M31.8085 21.8631L29.6655 17.4434C29.5675 17.2045 29.3953 17.0064 29.181 16.8857L25.8552 15.0132C25.7819 14.972 25.6931 14.98 25.6272 15.034C24.6865 15.8035 23.5805 16.2102 22.4289 16.2102C21.2771 16.2102 20.1712 15.8035 19.2306 15.034C19.1645 14.98 19.0757 14.972 19.0023 15.0132L15.6768 16.8857C15.4624 17.0064 15.2904 17.2044 15.1923 17.4434L13.6332 22.2639C13.4855 22.6238 13.5157 23.0357 13.7142 23.3658C13.9126 23.6959 14.2484 23.8929 14.6125 23.8929L30.8291 23.4922C31.1932 23.4922 31.529 23.2951 31.7274 22.965C31.9258 22.6349 31.9562 22.2229 31.8085 21.8631Z" fill="#2563EB"/>
<path d="M5.985 1V25.57H0V1H5.985Z" fill="white"/>
</svg>
