<svg width="271" height="96" viewBox="0 0 271 96" fill="none" xmlns="http://www.w3.org/2000/svg">
<path fill-rule="evenodd" clip-rule="evenodd" d="M201.897 7.4781H198.374C198.154 7.4781 197.934 7.25817 197.934 6.92827V6.8183C197.934 6.70833 198.044 6.59839 198.044 6.59839C198.154 6.26849 198.374 6.04854 198.594 5.82861C198.814 5.60868 199.034 5.49872 199.365 5.27878C199.695 5.16882 199.915 5.05884 200.245 5.05884C200.576 5.05884 200.906 5.16882 201.126 5.27878C201.456 5.38875 201.676 5.60868 201.897 5.82861C202.117 6.04854 202.337 6.26849 202.447 6.59839C202.447 6.70835 202.557 6.70833 202.557 6.8183C202.557 6.92827 202.557 6.92828 202.557 7.03825C202.447 7.25818 202.227 7.4781 201.897 7.4781Z" fill="#8BBD20"/>
<path fill-rule="evenodd" clip-rule="evenodd" d="M202.44 27.0516V27.1615V27.2715C202.33 28.4811 201.339 29.4708 200.128 29.4708C198.917 29.4708 197.926 28.4811 197.816 27.2715V27.1615V27.0516V26.9416V20.3437V17.8145V11.2166V11.1066V10.9967V10.8867C197.926 9.67707 198.917 8.68738 200.128 8.68738C201.339 8.68738 202.33 9.67707 202.44 10.8867V10.9967V11.1066V11.2166V17.8145V20.3437V27.0516Z" fill="#8BBD20"/>
<path fill-rule="evenodd" clip-rule="evenodd" d="M232.28 27.0516V27.1615V27.2715C232.17 28.4811 231.179 29.4708 229.968 29.4708C228.757 29.4708 227.766 28.4811 227.656 27.2715V27.1615V27.0516V26.9416V20.3437V17.8145V11.2166V11.1066V10.9967V10.8867C227.766 9.67707 228.757 8.68738 229.968 8.68738C231.179 8.68738 232.17 9.67707 232.28 10.8867V10.9967V11.1066V11.2166V17.8145V20.3437V27.0516Z" fill="#8BBD20"/>
<path fill-rule="evenodd" clip-rule="evenodd" d="M224.795 19.3537V19.0238V18.2541V17.9242C224.685 15.5049 223.695 13.4156 222.153 11.7661C220.502 10.1166 218.3 9.12695 215.879 9.12695H215.768H214.668H214.557C212.136 9.12695 209.824 10.2266 208.283 11.7661C206.741 13.3056 205.641 15.5049 205.641 17.9242V20.7833C205.751 23.2025 206.741 25.2919 208.283 26.9414C209.934 28.5909 212.136 29.5805 214.557 29.5805C214.998 29.5805 215.438 29.5805 215.879 29.5805C218.3 29.5805 220.612 28.4809 222.153 26.9414C223.695 25.4019 224.795 23.2025 224.795 20.7833V20.4534V19.3537ZM215.768 13.6355C216.979 13.6355 218.08 14.1854 218.851 14.9551C219.621 15.7249 220.172 16.8245 220.172 18.0342V18.9139V19.2438V20.3434C220.172 21.5531 219.621 22.6527 218.851 23.4225C218.08 24.1922 216.979 24.7421 215.768 24.7421H215.658H214.557H214.447C213.236 24.7421 212.136 24.1922 211.365 23.4225C210.594 22.6527 210.044 21.5531 210.044 20.3434C210.044 19.5737 210.044 18.8039 210.044 17.9242C210.044 16.7146 210.594 15.6149 211.365 14.8452C212.136 14.0754 213.236 13.5256 214.447 13.5256H214.557H215.768V13.6355Z" fill="#8BBD20"/>
<path fill-rule="evenodd" clip-rule="evenodd" d="M193.092 29.4712C194.303 29.3612 195.294 28.3715 195.294 27.1619C195.294 25.9523 194.303 24.9626 193.092 24.8526H192.982C191.771 24.8526 190.67 24.3028 189.899 23.533C189.129 22.7633 188.578 21.6636 188.578 20.454V13.7461H192.872H192.982H193.092H193.202C194.413 13.6362 195.404 12.6465 195.404 11.4368C195.404 10.2272 194.413 9.23753 193.202 9.12757H192.982H188.578V7.47809V7.36812V7.25814C188.578 6.04853 187.478 5.05884 186.267 5.05884C185.056 5.05884 183.955 6.04853 183.955 7.25814V7.36812V7.47809V9.0176C182.744 9.12756 181.863 10.1173 181.863 11.3269C181.863 12.5365 182.854 13.5262 183.955 13.6362V20.2341V20.344C183.955 22.8733 185.056 25.0725 186.597 26.722C188.138 28.2615 190.34 29.3612 192.762 29.3612H192.872L193.092 29.4712Z" fill="#8BBD20"/>
<path fill-rule="evenodd" clip-rule="evenodd" d="M158.739 26.5014C158.739 26.9413 158.629 27.3811 158.519 27.711C158.409 28.1509 158.188 28.4808 157.858 28.7007C157.638 28.9206 157.308 29.1406 156.978 29.2505C156.647 29.3605 156.317 29.4705 155.987 29.4705C155.877 29.4705 155.657 29.4705 155.436 29.4705C155.326 29.4705 155.106 29.3605 154.886 29.3605C154.666 29.2505 154.556 29.2506 154.336 29.1406C154.115 29.0306 153.895 28.8107 153.785 28.7007L141.456 12.7557V27.601C141.456 28.2608 141.235 28.8107 140.795 29.1406C140.355 29.4705 139.804 29.6904 139.144 29.6904C137.603 29.6904 136.832 29.0306 136.832 27.601V7.14753C136.832 6.70767 136.942 6.2678 137.052 5.9379C137.162 5.60801 137.493 5.27809 137.713 5.05816C138.263 4.6183 138.924 4.3984 139.584 4.3984C139.804 4.3984 139.914 4.3984 140.135 4.3984C140.355 4.3984 140.465 4.50834 140.685 4.50834C140.905 4.6183 141.125 4.61831 141.235 4.72828C141.456 4.83825 141.676 5.05817 141.786 5.16813L153.895 20.5633V6.15782C153.895 4.83823 154.666 4.06848 156.317 4.06848C156.978 4.06848 157.528 4.28841 157.968 4.61831C158.409 4.9482 158.629 5.49802 158.629 6.15782V26.5014H158.739Z" fill="#8BBD20"/>
<path fill-rule="evenodd" clip-rule="evenodd" d="M236.793 13.6361C235.472 13.6361 234.371 14.186 233.601 14.9557C232.83 15.7255 232.28 16.8251 232.28 18.0348V27.0519V27.1619V27.2719V27.3818C232.17 28.5915 231.179 29.5811 229.968 29.5811C228.757 29.5811 227.766 28.5915 227.656 27.3818V27.2719V27.1619V27.0519V18.1447V18.0348C227.656 15.6155 228.757 13.3062 230.298 11.6567C231.95 10.0073 234.261 9.01758 236.793 9.01758C239.325 9.01758 241.637 10.0073 243.288 11.6567C244.94 13.3062 245.93 15.5056 245.93 18.0348V18.1447V27.0519V27.1619V27.2719V27.3818C245.82 28.5915 244.829 29.5811 243.619 29.5811C242.408 29.5811 241.417 28.5915 241.307 27.3818V27.2719V27.1619V27.0519V18.0348C241.307 16.8251 240.756 15.7255 239.986 14.9557C239.215 14.186 238.004 13.6361 236.793 13.6361Z" fill="#8BBD20"/>
<path fill-rule="evenodd" clip-rule="evenodd" d="M167.437 21.5536C166.997 21.5536 166.667 21.7736 166.337 21.9935C166.006 22.3234 165.896 22.6533 165.896 23.2031C165.896 23.643 166.116 24.0829 166.337 24.4128C166.557 24.6327 166.997 24.8526 167.327 24.8526H171.511C172.171 24.8526 172.832 24.5227 173.272 24.0829C173.712 23.643 174.043 22.9832 174.043 22.3234V18.0348C174.043 16.8251 173.492 15.7255 172.722 14.9557C171.951 14.186 170.85 13.6361 169.639 13.6361H168.428C168.318 13.6361 168.318 13.6361 168.208 13.6361C166.887 13.6361 165.896 12.6464 165.896 11.3269C165.896 10.0073 166.887 9.01758 168.208 9.01758C168.318 9.01758 168.318 9.01758 168.428 9.01758H169.529H169.749C172.171 9.01758 174.483 10.1172 176.024 11.6567C177.565 13.1963 178.666 15.3956 178.666 17.8148V18.1447V22.2134V22.5434C178.556 24.4128 177.785 26.0622 176.575 27.2719C175.364 28.4815 173.602 29.3612 171.731 29.3612H171.621H171.511H167.658H167.548C165.896 29.3612 164.355 28.5915 163.254 27.4918C162.153 26.3922 161.383 24.7427 161.383 23.0932C161.383 21.3337 162.043 19.7942 163.254 18.6946C164.355 17.5949 165.896 16.9351 167.548 16.8251H170.41H170.52C171.731 16.9351 172.722 17.9248 172.722 19.1344C172.722 20.344 171.731 21.3337 170.52 21.4437H170.41H170.3H167.437V21.5536Z" fill="#8BBD20"/>
<path fill-rule="evenodd" clip-rule="evenodd" d="M23.554 0H126.593C128.575 0 130.116 1.5395 130.116 3.51888V30.1306C130.116 32.1099 128.575 33.6494 126.593 33.6494H23.554C21.5724 33.6494 20.0312 32.1099 20.0312 30.1306V3.51888C20.0312 1.5395 21.6825 0 23.554 0ZM35.7734 14.4055H31.8103C31.1498 14.4055 30.4893 14.0756 30.049 13.6357C29.6086 13.1959 29.2784 12.5361 29.2784 11.7663C29.2784 10.9965 29.6086 10.3368 30.049 9.8969C30.4893 9.45704 31.1498 9.12713 31.8103 9.12713H34.1221C35.4431 9.12713 36.4339 8.13743 36.4339 6.81784C36.4339 5.49826 35.4431 4.50856 34.1221 4.50856H34.012H31.9204C29.9389 4.50856 28.0674 5.27835 26.8565 6.59793C25.5355 7.91752 24.7649 9.67694 24.7649 11.6563C24.7649 13.6357 25.5355 15.5051 26.8565 16.7147C28.1775 18.0343 29.9389 18.8041 31.8103 18.8041H31.9204H35.7734C36.4339 18.8041 37.0944 19.134 37.5347 19.5739C37.9751 20.0137 38.3053 20.6735 38.3053 21.4433C38.3053 22.213 37.9751 22.8728 37.5347 23.3127C37.0944 23.7525 36.4339 24.0824 35.7734 24.0824H27.517H27.4069C26.0859 24.0824 25.0952 25.0721 25.0952 26.3917C25.0952 27.7113 26.0859 28.701 27.4069 28.701H27.517H35.6633C37.6448 28.701 39.4062 27.9312 40.7272 26.6116C42.0482 25.2921 42.8188 23.5326 42.8188 21.5532C42.8188 19.5738 42.0482 17.7045 40.7272 16.4948C39.6264 15.2852 37.7549 14.4055 35.7734 14.4055ZM53.9374 13.0859C55.1483 13.0859 56.3593 13.6357 57.1298 14.4055C57.9004 15.1752 58.4509 16.2749 58.4509 17.4845V17.7044V26.6116V26.7216V26.8316V26.9416C58.5609 28.1512 59.5517 29.1409 60.7626 29.1409C61.9736 29.1409 62.9643 28.1512 63.0744 26.9416V26.8316V26.7216V26.6116V17.7044V17.5945C63.0744 16.3849 63.6249 15.2852 64.3954 14.5154C65.166 13.7457 66.377 13.1959 67.5879 13.1959C68.7988 13.1959 70.0098 13.7457 70.7804 14.5154C71.551 15.2852 72.1014 16.3849 72.1014 17.5945V26.6116V26.7216V26.8316V26.9416C72.2115 28.1512 73.2022 29.1409 74.4132 29.1409C75.6241 29.1409 76.6149 28.1512 76.7249 26.9416V26.8316V26.7216V26.6116V17.7044V17.5945C76.7249 15.0653 75.6241 12.8659 74.0829 11.2165C72.4316 9.56698 70.1199 8.5773 67.5879 8.5773C65.056 8.5773 62.7442 9.56698 61.0929 11.2165C60.9828 11.3264 60.8727 11.4364 60.7626 11.6563C60.6526 11.5464 60.5425 11.4364 60.4324 11.2165C58.7811 9.56698 56.4693 8.5773 53.9374 8.5773C51.4054 8.5773 49.0936 9.56698 47.4424 11.2165C45.7911 12.8659 44.8003 15.0653 44.8003 17.5945V17.7044V26.6116V26.7216V26.8316V26.9416C44.9104 28.1512 45.9012 29.1409 47.1121 29.1409C48.3231 29.1409 49.3138 28.1512 49.4239 26.9416V26.8316V26.7216V26.6116V17.5945C49.4239 16.3849 49.9743 15.2852 50.7449 14.5154C51.5155 13.6357 52.6164 13.0859 53.9374 13.0859ZM123.291 28.9209C124.502 28.811 125.493 27.8213 125.493 26.6116C125.493 25.402 124.502 24.4123 123.291 24.3024H123.181C121.97 24.3024 120.869 23.7526 120.098 22.9828C119.328 22.213 118.777 21.1134 118.777 19.9037V13.1959H123.071H123.181H123.291H123.401C124.612 13.0859 125.603 12.0962 125.603 10.8866C125.603 9.67696 124.612 8.68727 123.401 8.5773H123.181H118.777V7.14776V7.03779V6.92782C118.777 5.71819 117.677 4.72851 116.466 4.72851C115.255 4.72851 114.154 5.71819 114.154 6.92782V7.03779V7.14776V8.68727C112.943 8.79724 112.062 9.78693 112.062 10.9966C112.062 12.2062 113.053 13.1958 114.154 13.3058V19.9037V20.0137C114.154 22.5429 115.255 24.7422 116.796 26.3917C118.337 27.9312 120.539 29.0309 122.961 29.0309H123.071L123.291 28.9209ZM108.099 8.46733C105.567 8.46733 103.255 9.45701 101.604 11.1065C99.9529 12.756 98.9621 14.9553 98.9621 17.3745V17.5945V26.5017V26.6116V26.7216V26.8316C99.0722 28.0412 100.063 29.0309 101.274 29.0309C102.485 29.0309 103.476 28.0412 103.586 26.8316V26.7216V26.6116V26.5017V17.4845C103.586 16.2749 104.136 15.1752 104.907 14.4055C105.677 13.6357 106.778 13.0859 107.989 13.0859H108.099C109.42 13.0859 110.411 12.0962 110.411 10.7766C110.411 9.45702 109.42 8.46733 108.099 8.46733ZM85.2015 21.0034H87.8435H87.9536H88.0637C89.2746 20.8934 90.2654 19.9038 90.2654 18.6941C90.2654 17.4845 89.2746 16.4948 88.0637 16.3849H87.9536H85.0914C83.4401 16.3849 81.8989 17.1546 80.7981 18.2543C79.6972 19.3539 78.9266 21.0034 78.9266 22.6529C78.9266 24.4123 79.5872 25.9518 80.7981 27.0515C81.8989 28.1512 83.4401 28.811 85.0914 28.9209H85.2015H89.1645H89.2746H89.3847C91.2561 28.811 93.0175 28.0412 94.2284 26.8316C95.4394 25.622 96.21 23.9725 96.3201 22.103V21.7732V17.7044V17.3745C96.21 14.9553 95.2192 12.8659 93.678 11.2165C92.0267 9.56698 89.8251 8.5773 87.4032 8.5773H87.183H86.0822C85.9721 8.5773 85.9721 8.5773 85.862 8.5773C84.541 8.5773 83.5502 9.567 83.5502 10.8866C83.5502 12.2062 84.541 13.1959 85.862 13.1959C85.9721 13.1959 85.9721 13.1959 86.0822 13.1959H87.2931C88.504 13.1959 89.6049 13.7457 90.3755 14.5154C91.1461 15.2852 91.6965 16.3849 91.6965 17.5945V21.8831C91.6965 22.5429 91.3662 23.2027 90.9259 23.6426C90.4855 24.0825 89.9351 24.4123 89.1645 24.4123H84.9813C84.541 24.4123 84.2107 24.1924 83.9906 23.9725C83.6603 23.6426 83.5502 23.3127 83.5502 22.7628C83.5502 22.323 83.7704 21.8831 83.9906 21.5532C84.4309 21.2233 84.8712 21.0034 85.2015 21.0034Z" fill="#2E4898"/>
<path d="M262.332 96.0001H8.36645C3.74289 96.0001 0 92.2613 0 87.7527V33.5398C0 29.0312 3.74289 25.2924 8.36645 25.2924H13.9808C14.8615 25.2924 15.6321 26.0621 15.6321 26.9418C15.6321 27.8216 14.8615 28.5913 13.9808 28.5913H8.36645C5.61433 28.5913 3.30255 30.7906 3.30255 33.5398V87.7527C3.30255 90.5018 5.61433 92.7011 8.36645 92.7011H262.332C265.084 92.7011 267.396 90.5018 267.396 87.7527V33.5398C267.396 30.7906 265.084 28.5913 262.332 28.5913H251.654C250.773 28.5913 250.003 27.8216 250.003 26.9418C250.003 26.0621 250.773 25.2924 251.654 25.2924H262.332C266.956 25.2924 270.699 29.0312 270.699 33.5398V87.7527C270.589 92.2613 266.846 96.0001 262.332 96.0001Z" fill="#3655B6"/>
<path d="M20.2539 55.8629C20.2539 49.045 26.4187 45.6361 32.5834 45.6361C37.207 45.6361 42.0507 48.0553 44.3625 52.8938L39.7389 55.2031C38.1977 52.344 35.2255 50.8045 32.4733 50.8045C28.9506 50.8045 25.4279 52.4539 25.4279 55.8629V68.179C25.4279 71.5879 28.9506 73.2374 32.4733 73.2374C35.3355 73.2374 38.1977 71.8078 39.7389 68.9487L44.3625 71.148C42.0507 76.0965 37.0969 78.5157 32.4733 78.5157C26.4187 78.5157 20.2539 75.1068 20.2539 68.2889V55.8629Z" fill="#3655B6"/>
<path d="M56.3633 55.9721C56.3633 49.0443 62.7482 45.6354 69.2432 45.6354C75.7382 45.6354 82.2332 49.0443 82.2332 55.9721V68.0683C82.2332 74.9961 75.7382 78.405 69.2432 78.405C62.7482 78.405 56.3633 74.8861 56.3633 68.0683V55.9721ZM61.5373 68.0683C61.5373 71.4772 65.3902 73.2366 69.2432 73.2366C73.2063 73.2366 77.0592 71.4772 77.0592 68.0683V56.0821C77.0592 52.4532 73.2063 50.9137 69.2432 50.9137C65.3902 50.9137 61.5373 52.5632 61.5373 56.0821V68.0683Z" fill="#3655B6"/>
<path d="M96.4304 46.075H101.604V72.7965H116.136V78.0749H96.3203V46.075H96.4304Z" fill="#3655B6"/>
<path d="M127.919 46.075H133.093V72.7965H147.624V78.0749H127.809V46.075H127.919Z" fill="#3655B6"/>
<path d="M164.69 59.3808H179.221V64.6591H164.69V72.7965H180.542V78.0749H159.516V46.075H180.542V51.3533H164.69V59.3808Z" fill="#3655B6"/>
<path d="M193.637 55.8621C193.637 49.0443 199.802 45.6354 205.967 45.6354C210.591 45.6354 215.214 47.7247 217.636 52.6731L212.902 54.8725C211.471 52.0134 208.609 50.9137 205.857 50.9137C202.334 50.9137 198.811 52.5632 198.811 55.9721V68.1783C198.811 71.6972 202.334 73.3466 205.857 73.3466C209.38 73.3466 213.012 71.6972 213.012 68.1783V65.649H203.985V60.5906H218.186V68.0683C218.186 75.1061 212.022 78.405 205.857 78.405C199.692 78.405 193.527 74.9961 193.527 68.0683V55.8621H193.637Z" fill="#3655B6"/>
<path d="M237.233 59.3808H251.764V64.6591H237.233V72.7965H253.085V78.0749H232.059V46.075H253.085V51.3533H237.233V59.3808Z" fill="#3655B6"/>
</svg>
